<?xml version="1.0" encoding="utf-8"?>
<!-- Generator: Adobe Illustrator 16.0.3, SVG Export Plug-In . SVG Version: 6.00 Build 0)  -->
<!DOCTYPE svg PUBLIC "-//W3C//DTD SVG 1.1//EN" "http://www.w3.org/Graphics/SVG/1.1/DTD/svg11.dtd">
<svg version="1.1" id="Capa_1" xmlns="http://www.w3.org/2000/svg" xmlns:xlink="http://www.w3.org/1999/xlink" x="0px" y="0px"
	 width="1038.813px" height="152.47px" viewBox="0 0 1038.813 152.47" enable-background="new 0 0 1038.813 152.47"
	 xml:space="preserve">
<g>
	<g>
		<path d="M184.732,37.729h24.982v105.713h-24.982V37.729z"/>
		<path d="M271.781,136.429c-11.02-5.961-19.665-14.22-25.943-24.793c-6.277-10.566-9.416-22.385-9.416-35.452
			c0-13.068,3.138-24.886,9.416-35.456c6.278-10.57,14.923-18.833,25.943-24.79C282.799,9.98,295.161,7,308.87,7
			c13.708,0,26.07,2.98,37.089,8.938c11.017,5.957,19.665,14.19,25.943,24.693c6.276,10.505,9.417,22.355,9.417,35.552
			c0,13.196-3.141,25.046-9.417,35.549c-6.278,10.508-14.926,18.735-25.943,24.696c-11.02,5.955-23.382,8.938-37.089,8.938
			C295.161,145.367,282.799,142.383,271.781,136.429z M333.083,117.405c7.175-4.039,12.812-9.672,16.912-16.911
			c4.098-7.237,6.148-15.344,6.148-24.311c0-8.967-2.051-17.07-6.148-24.312c-4.101-7.234-9.737-12.876-16.912-16.91
			c-7.175-4.036-15.246-6.053-24.213-6.053c-8.968,0-17.04,2.017-24.213,6.053c-7.176,4.034-12.812,9.675-16.912,16.91
			c-4.101,7.242-6.148,15.344-6.148,24.312c0,8.967,2.048,17.074,6.148,24.311c4.101,7.239,9.736,12.872,16.912,16.911
			c7.173,4.031,15.245,6.049,24.213,6.049C317.837,123.454,325.908,121.436,333.083,117.405z"/>
		<path d="M419.464,140.946c-9.675-2.946-17.329-6.855-22.965-11.723l8.648-19.415c5.506,4.357,12.266,7.915,20.273,10.669
			c8.006,2.753,16.048,4.133,24.118,4.133c9.993,0,17.455-1.604,22.388-4.804c4.933-3.2,7.399-7.43,7.399-12.687
			c0-3.84-1.378-7.014-4.131-9.513c-2.756-2.497-6.246-4.445-10.474-5.857c-4.228-1.412-9.993-3.009-17.294-4.804
			c-10.252-2.433-18.546-4.868-24.886-7.301c-6.343-2.436-11.79-6.247-16.336-11.438c-4.548-5.186-6.822-12.201-6.822-21.043
			c0-7.427,2.018-14.187,6.055-20.273c4.034-6.083,10.118-10.921,18.255-14.508C431.827,8.797,441.786,7,453.574,7
			c8.197,0,16.27,1.027,24.213,3.076c7.942,2.051,14.797,4.996,20.563,8.84l-7.878,19.409c-5.896-3.459-12.044-6.083-18.448-7.88
			c-6.409-1.792-12.62-2.689-18.642-2.689c-9.867,0-17.199,1.666-22.002,4.996c-4.806,3.333-7.208,7.752-7.208,13.259
			c0,3.846,1.375,6.985,4.132,9.416c2.753,2.438,6.246,4.356,10.474,5.765c4.227,1.413,9.994,3.012,17.294,4.804
			c9.993,2.306,18.191,4.708,24.598,7.207c6.405,2.501,11.884,6.313,16.432,11.437c4.546,5.124,6.823,12.041,6.823,20.755
			c0,7.43-2.019,14.157-6.055,20.174c-4.034,6.024-10.155,10.829-18.352,14.412c-8.2,3.584-18.193,5.386-29.979,5.386
			C439.162,145.367,429.136,143.89,419.464,140.946z"/>
		<path d="M554.081,30.062h-44.586V8.923h114.148v21.139H579.06v113.381h-24.979V30.062z"/>
		<path d="M695.513,8.923h24.984v134.52h-24.984V8.923z"/>
		<path d="M876.344,8.923v134.52h-20.564L781.6,52.354v91.089h-24.785V8.923h20.562l74.177,91.086V8.923H876.344z"/>
		<path d="M1032,8.923v134.52h-20.563l-74.179-91.089v91.089H912.47V8.923h20.563l74.179,91.086V8.923H1032z"/>
	</g>
	<g>
		<g>
			<path d="M8,8.923h24.981v134.52H8V8.923z"/>
		</g>
		<g>
			<path d="M25.981,111.569V86.587h176.733v24.981H25.981z"/>
		</g>
		<path d="M95.332,76.183c0.219-1.358,0.345-2.765,0.345-4.215c0-10.618-6.212-19.226-13.874-19.226H54.677
			c-7.662,0-13.873,8.608-13.873,19.226c0,1.451,0.126,2.857,0.345,4.215H95.332z"/>
	</g>
</g>
</svg>
